<svg width="195" height="135" viewBox="0 0 195 135" fill="none" xmlns="http://www.w3.org/2000/svg">
<path d="M180.834 10.046H129.994C127.412 10.046 124.981 8.83545 123.425 6.77483L120.782 3.27105C119.227 1.21043 116.795 -9.5619e-05 114.215 -9.5619e-05H84.5385C81.3486 -9.5619e-05 78.7627 2.58608 78.7627 5.77538V32.7214H186.61V15.8229C186.61 12.6322 184.023 10.046 180.834 10.046Z" fill="#EA7628"/>
<path d="M180.076 42.6458H88.303V16.3602H180.076V42.6458Z" fill="#E1E6EB"/>
<path d="M177.069 45.8638H85.2974V19.5783H177.069V45.8638Z" fill="white"/>
<path d="M188.889 32.7217H129.112C127.449 32.7217 125.825 32.2105 124.461 31.2599L116.8 25.9195C115.434 24.9675 113.811 24.4577 112.149 24.4577H76.4845C73.2975 24.4577 70.8536 27.288 71.3175 30.44L79.3744 85.1994C79.8019 88.1058 82.2954 90.2598 85.2328 90.2598H133.295H181.355C184.293 90.2598 186.786 88.1058 187.214 85.1994L194.055 38.704C194.519 35.5506 192.075 32.7217 188.889 32.7217Z" fill="#F9A21B"/>
<path d="M173.249 25.4973H145.713V22.578H173.249V25.4973Z" fill="#F0F2F5"/>
<path d="M173.249 29.969H131.184V27.0496H173.249V29.969Z" fill="#F0F2F5"/>
<path d="M98.2843 86.1672C97.1278 92.9938 93.3813 98.9646 87.7365 102.974C82.09 106.986 75.2207 108.557 68.3916 107.4C61.5626 106.244 55.5927 102.497 51.5826 96.8508C43.3047 85.1965 46.0512 68.9771 57.7065 60.6988C63.3531 56.6881 70.2226 55.1157 77.0516 56.2716C83.8789 57.429 89.849 61.1755 93.8589 66.8217C97.8689 72.468 99.4411 79.3377 98.2843 86.1672ZM99.5223 62.7996C94.4378 55.6398 86.8685 50.8896 78.2108 49.4235C69.5533 47.9574 60.8431 49.9519 53.6844 55.0353C39.8617 64.8516 35.9235 83.4747 44.0586 97.935L28.1298 109.25C26.7355 108.936 25.2201 109.187 23.9646 110.079L21.8363 111.59L2.19351 125.543C-0.152581 127.209 -0.703563 130.461 0.963316 132.808C1.7969 133.979 3.02566 134.703 4.34101 134.926C5.65479 135.15 7.05371 134.871 8.22762 134.037L29.0204 119.269L29.9984 118.574C31.2558 117.681 31.9911 116.333 32.152 114.914L48.0808 103.598C53.0415 109.235 59.7261 112.977 67.2305 114.248C75.8899 115.715 84.5999 113.722 91.7571 108.637C98.9176 103.553 103.668 95.9835 105.135 87.326C106.601 78.6685 104.607 69.9579 99.5223 62.7996Z" fill="#1F4168"/>
</svg>
