<svg width="71" height="38" viewBox="0 0 71 38" fill="none" xmlns="http://www.w3.org/2000/svg">
<path d="M66.6028 14.9753L70.2394 15.5858C69.7718 16.9192 69.0315 17.9366 68.0184 18.638C67.014 19.3306 65.7542 19.677 64.2389 19.677C61.8405 19.677 60.0654 18.8934 58.9138 17.3262C58.0047 16.0706 57.5501 14.4861 57.5501 12.5725C57.5501 10.2866 58.1475 8.49861 59.3424 7.20846C60.5373 5.90966 62.0483 5.26025 63.8753 5.26025C65.9274 5.26025 67.5465 5.93996 68.7328 7.29938C69.919 8.65014 70.4862 10.7239 70.4342 13.5207H61.2906C61.3166 14.603 61.611 15.4472 62.1738 16.0533C62.7366 16.6508 63.438 16.9495 64.2779 16.9495C64.8494 16.9495 65.3299 16.7936 65.7196 16.4819C66.1092 16.1702 66.4036 15.668 66.6028 14.9753ZM66.8106 11.2867C66.7846 10.2303 66.5118 9.42942 65.9923 8.88392C65.4728 8.32976 64.8407 8.05269 64.0961 8.05269C63.2995 8.05269 62.6414 8.34275 62.1219 8.92289C61.6023 9.50302 61.3469 10.291 61.3556 11.2867H66.8106Z" fill="#04E259"/>
<path d="M54.9005 19.3653H51.2509V12.3258C51.2509 10.8365 51.1729 9.87534 51.0171 9.44241C50.8612 9.00081 50.6058 8.6588 50.2508 8.41635C49.9044 8.17391 49.4845 8.05269 48.9909 8.05269C48.3589 8.05269 47.7917 8.22586 47.2895 8.57221C46.7873 8.91856 46.441 9.37747 46.2505 9.94894C46.0686 10.5204 45.9777 11.5768 45.9777 13.118V19.3653H42.3281V5.57197H45.718V7.5981C46.9215 6.03954 48.4368 5.26025 50.2638 5.26025C51.069 5.26025 51.805 5.40745 52.4717 5.70185C53.1385 5.98759 53.6407 6.35558 53.9784 6.80583C54.3247 7.25609 54.5628 7.76695 54.6927 8.33842C54.8312 8.9099 54.9005 9.72815 54.9005 10.7932V19.3653Z" fill="#04E259"/>
<path d="M34.9509 3.7016V0.324707H38.6005V3.7016H34.9509ZM34.9509 19.3652V5.57188H38.6005V19.3652H34.9509Z" fill="#04E259"/>
<path d="M18.5859 5.57197H21.9888V7.5981C22.4304 6.90541 23.0278 6.34259 23.7811 5.90966C24.5344 5.47672 25.37 5.26025 26.2878 5.26025C27.8897 5.26025 29.2491 5.88801 30.3661 7.14352C31.483 8.39903 32.0415 10.1481 32.0415 12.3907C32.0415 14.6939 31.4787 16.4863 30.3531 17.7678C29.2275 19.0406 27.8637 19.677 26.2618 19.677C25.4999 19.677 24.8072 19.5255 24.1838 19.2224C23.569 18.9194 22.9196 18.3998 22.2356 17.6638V24.6125H18.5859V5.57197ZM22.1966 12.2348C22.1966 13.7847 22.504 14.932 23.1187 15.6767C23.7335 16.4127 24.4825 16.7807 25.3657 16.7807C26.2142 16.7807 26.9199 16.443 27.4827 15.7676C28.0455 15.0836 28.327 13.9666 28.327 12.4167C28.327 10.9707 28.0369 9.89699 27.4568 9.19563C26.8766 8.49428 26.1579 8.1436 25.3007 8.1436C24.4089 8.1436 23.6686 8.48995 23.0798 9.18265C22.491 9.86668 22.1966 10.8841 22.1966 12.2348Z" fill="#04E259"/>
<path d="M0 13.1699L3.74056 12.8062C3.96569 14.0617 4.42027 14.9839 5.10431 15.5727C5.797 16.1615 6.72781 16.4559 7.89674 16.4559C9.13493 16.4559 10.0657 16.1961 10.6892 15.6766C11.3213 15.1484 11.6373 14.5336 11.6373 13.8323C11.6373 13.382 11.5031 13.001 11.2347 12.6893C10.9749 12.369 10.516 12.0919 9.85793 11.8581C9.40768 11.7022 8.38163 11.4252 6.77977 11.0269C4.71899 10.516 3.27299 9.88824 2.44175 9.14359C1.27283 8.09589 0.688367 6.81873 0.688367 5.31211C0.688367 4.34234 0.961116 3.43751 1.50661 2.59761C2.06077 1.74906 2.85304 1.10398 3.88343 0.662391C4.92247 0.220797 6.17366 0 7.63698 0C10.0268 0 11.8235 0.523852 13.027 1.57155C14.2392 2.61926 14.8757 4.01764 14.9363 5.7667L11.0918 5.93554C10.9273 4.95711 10.5723 4.25575 10.0268 3.83148C9.48994 3.39854 8.68035 3.18207 7.59801 3.18207C6.48104 3.18207 5.60651 3.41153 4.97443 3.87044C4.56747 4.16484 4.36399 4.55881 4.36399 5.05235C4.36399 5.50261 4.55448 5.88792 4.93546 6.20829C5.42035 6.61525 6.59793 7.03953 8.46821 7.48112C10.3385 7.92271 11.7196 8.38163 12.6114 8.85785C13.5119 9.32542 14.2133 9.9705 14.7155 10.7931C15.2263 11.607 15.4818 12.6157 15.4818 13.8193C15.4818 14.9103 15.1787 15.932 14.5726 16.8845C13.9665 17.8369 13.1093 18.5469 12.001 19.0145C10.8926 19.4734 9.51159 19.7029 7.85777 19.7029C5.45065 19.7029 3.60202 19.1487 2.31187 18.0404C1.02173 16.9234 0.251102 15.2999 0 13.1699Z" fill="#04E259"/>
<path d="M70.1437 29.5204V31.1642H68.7348V34.305C68.7348 34.941 68.747 35.3128 68.7715 35.4204C68.8008 35.5231 68.862 35.6088 68.9549 35.6772C69.0528 35.7457 69.1702 35.78 69.3072 35.78C69.4979 35.78 69.7744 35.7139 70.1364 35.5818L70.3125 37.1816C69.8331 37.3871 69.29 37.4898 68.6834 37.4898C68.3116 37.4898 67.9765 37.4286 67.6781 37.3063C67.3796 37.1791 67.1595 37.0177 67.0176 36.822C66.8806 36.6214 66.7852 36.3524 66.7314 36.0148C66.6874 35.7751 66.6654 35.2908 66.6654 34.5618V31.1642H65.7187V29.5204H66.6654V27.972L68.7348 26.7686V29.5204H70.1437Z" fill="white"/>
<path d="M59.7454 31.898L57.8741 31.5604C58.0845 30.807 58.4465 30.2493 58.9602 29.8873C59.4738 29.5252 60.237 29.3442 61.2497 29.3442C62.1694 29.3442 62.8543 29.4543 63.3044 29.6745C63.7545 29.8897 64.0701 30.1661 64.2511 30.5037C64.437 30.8364 64.5299 31.4503 64.5299 32.3456L64.5079 34.7526C64.5079 35.4375 64.5397 35.9438 64.6033 36.2716C64.6718 36.5945 64.7965 36.9418 64.9776 37.3136H62.9375C62.8837 37.1766 62.8177 36.9736 62.7394 36.7045C62.7051 36.5822 62.6807 36.5015 62.666 36.4624C62.3138 36.8048 61.9371 37.0617 61.5359 37.2329C61.1347 37.4041 60.7067 37.4897 60.2517 37.4897C59.4494 37.4897 58.8158 37.272 58.3511 36.8366C57.8912 36.4012 57.6613 35.8509 57.6613 35.1855C57.6613 34.7452 57.7665 34.3538 57.9768 34.0114C58.1872 33.664 58.4807 33.3999 58.8574 33.2189C59.239 33.033 59.7869 32.8715 60.5012 32.7345C61.465 32.5535 62.1327 32.3847 62.5046 32.2282V32.0227C62.5046 31.6264 62.4067 31.3451 62.211 31.1788C62.0153 31.0076 61.646 30.922 61.1029 30.922C60.736 30.922 60.4498 30.9954 60.2444 31.1421C60.0389 31.284 59.8726 31.5359 59.7454 31.898ZM62.5046 33.5711C62.2404 33.6592 61.8221 33.7643 61.2497 33.8866C60.6773 34.0089 60.3031 34.1288 60.1269 34.2462C59.8579 34.437 59.7233 34.6792 59.7233 34.9727C59.7233 35.2613 59.831 35.5109 60.0462 35.7212C60.2615 35.9316 60.5354 36.0368 60.8681 36.0368C61.2399 36.0368 61.5946 35.9145 61.9322 35.6698C62.1817 35.4839 62.3456 35.2565 62.4238 34.9874C62.4776 34.8113 62.5046 34.4762 62.5046 33.982V33.5711Z" fill="white"/>
<path d="M54.3517 34.8333L56.4064 35.1782C56.1423 35.9316 55.724 36.5064 55.1516 36.9027C54.5841 37.2941 53.8723 37.4897 53.0161 37.4897C51.661 37.4897 50.6581 37.047 50.0074 36.1615C49.4938 35.4521 49.2369 34.5569 49.2369 33.4757C49.2369 32.1842 49.5745 31.1739 50.2496 30.445C50.9247 29.7112 51.7784 29.3442 52.8107 29.3442C53.9701 29.3442 54.885 29.7283 55.5552 30.4964C56.2254 31.2595 56.5459 32.4312 56.5165 34.0114H51.3503C51.365 34.6229 51.5314 35.0999 51.8494 35.4424C52.1673 35.7799 52.5636 35.9487 53.0382 35.9487C53.361 35.9487 53.6326 35.8606 53.8527 35.6845C54.0729 35.5084 54.2392 35.2247 54.3517 34.8333ZM54.4691 32.7492C54.4544 32.1524 54.3003 31.6998 54.0068 31.3916C53.7133 31.0785 53.3561 30.922 52.9354 30.922C52.4853 30.922 52.1135 31.0859 51.82 31.4136C51.5265 31.7414 51.3821 32.1866 51.387 32.7492H54.4691Z" fill="white"/>
<path d="M39 26.5557H43.3002C44.1515 26.5557 44.785 26.5924 45.2009 26.6657C45.6216 26.7342 45.9958 26.881 46.3236 27.106C46.6563 27.3311 46.9327 27.6319 47.1528 28.0086C47.373 28.3805 47.4831 28.7987 47.4831 29.2635C47.4831 29.7674 47.3461 30.2297 47.0721 30.6504C46.8031 31.0712 46.4361 31.3867 45.9714 31.5971C46.6269 31.7879 47.1308 32.1132 47.4831 32.5731C47.8353 33.0329 48.0114 33.5735 48.0114 34.1948C48.0114 34.684 47.8965 35.161 47.6665 35.6258C47.4415 36.0857 47.1308 36.455 46.7346 36.7339C46.3432 37.0078 45.8589 37.1766 45.2816 37.2402C44.9196 37.2794 44.0463 37.3038 42.6618 37.3136H39V26.5557ZM41.1721 28.3462V30.8339H42.5958C43.4421 30.8339 43.968 30.8217 44.1735 30.7972C44.5453 30.7532 44.8364 30.626 45.0468 30.4156C45.262 30.2003 45.3696 29.919 45.3696 29.5717C45.3696 29.239 45.2767 28.97 45.0908 28.7645C44.9098 28.5541 44.6383 28.4269 44.2762 28.3829C44.061 28.3584 43.4421 28.3462 42.4196 28.3462H41.1721ZM41.1721 32.6244V35.501H43.1828C43.9656 35.501 44.4621 35.479 44.6725 35.435C44.9954 35.3763 45.2571 35.2344 45.4577 35.0094C45.6632 34.7794 45.7659 34.4737 45.7659 34.0921C45.7659 33.7692 45.6876 33.4952 45.5311 33.2702C45.3745 33.0452 45.147 32.8813 44.8486 32.7785C44.5551 32.6758 43.9142 32.6244 42.926 32.6244H41.1721Z" fill="white"/>
</svg>
