<svg width="18" height="44" viewBox="0 0 18 44" fill="none" xmlns="http://www.w3.org/2000/svg">
<path d="M8.06326 4.03163C8.06326 6.25824 6.25824 8.06326 4.03163 8.06326C1.80502 8.06326 0 6.25824 0 4.03163C0 1.80502 1.80502 0 4.03163 0C6.25824 0 8.06326 1.80502 8.06326 4.03163Z" fill="#C3A8DB"/>
<path d="M17.9184 4.03163C17.9184 6.25824 16.1133 8.06326 13.8867 8.06326C11.6601 8.06326 9.8551 6.25824 9.8551 4.03163C9.8551 1.80502 11.6601 0 13.8867 0C16.1133 0 17.9184 1.80502 17.9184 4.03163Z" fill="#C3A8DB"/>
<path d="M3.58367 2.68799H14.3347V5.37574H3.58367V2.68799Z" fill="#C3A8DB"/>
<path d="M8.06326 12.9909C8.06326 15.2175 6.25824 17.0225 4.03163 17.0225C1.80502 17.0225 0 15.2175 0 12.9909C0 10.7643 1.80502 8.95923 4.03163 8.95923C6.25824 8.95923 8.06326 10.7643 8.06326 12.9909Z" fill="#C3A8DB"/>
<path d="M17.9184 12.9909C17.9184 15.2175 16.1133 17.0225 13.8867 17.0225C11.6601 17.0225 9.8551 15.2175 9.8551 12.9909C9.8551 10.7643 11.6601 8.95923 13.8867 8.95923C16.1133 8.95923 17.9184 10.7643 17.9184 12.9909Z" fill="#C3A8DB"/>
<path d="M3.58367 11.6472H14.3347V14.335H3.58367V11.6472Z" fill="#C3A8DB"/>
<path d="M8.06326 21.9503C8.06326 24.1769 6.25824 25.982 4.03163 25.982C1.80502 25.982 0 24.1769 0 21.9503C0 19.7237 1.80502 17.9187 4.03163 17.9187C6.25824 17.9187 8.06326 19.7237 8.06326 21.9503Z" fill="#15ED68"/>
<path d="M17.9184 21.9503C17.9184 24.1769 16.1133 25.982 13.8867 25.982C11.6601 25.982 9.8551 24.1769 9.8551 21.9503C9.8551 19.7237 11.6601 17.9187 13.8867 17.9187C16.1133 17.9187 17.9184 19.7237 17.9184 21.9503Z" fill="#15ED68"/>
<path d="M3.58367 20.6064H14.3347V23.2942H3.58367V20.6064Z" fill="#15ED68"/>
<path d="M8.06326 30.9091C8.06326 33.1357 6.25824 34.9407 4.03163 34.9407C1.80502 34.9407 0 33.1357 0 30.9091C0 28.6825 1.80502 26.8774 4.03163 26.8774C6.25824 26.8774 8.06326 28.6825 8.06326 30.9091Z" fill="#25C4BF"/>
<path d="M17.9184 30.9091C17.9184 33.1357 16.1133 34.9407 13.8867 34.9407C11.6601 34.9407 9.8551 33.1357 9.8551 30.9091C9.8551 28.6825 11.6601 26.8774 13.8867 26.8774C16.1133 26.8774 17.9184 28.6825 17.9184 30.9091Z" fill="#25C4BF"/>
<path d="M3.58367 29.5657H14.3347V32.2534H3.58367V29.5657Z" fill="#25C4BF"/>
<path d="M8.06326 39.8683C8.06326 42.0949 6.25824 43.8999 4.03163 43.8999C1.80502 43.8999 0 42.0949 0 39.8683C0 37.6417 1.80502 35.8367 4.03163 35.8367C6.25824 35.8367 8.06326 37.6417 8.06326 39.8683Z" fill="#25C4BF"/>
<path d="M17.9184 39.8683C17.9184 42.0949 16.1133 43.8999 13.8867 43.8999C11.6601 43.8999 9.8551 42.0949 9.8551 39.8683C9.8551 37.6417 11.6601 35.8367 13.8867 35.8367C16.1133 35.8367 17.9184 37.6417 17.9184 39.8683Z" fill="#25C4BF"/>
<path d="M3.58367 38.5249H14.3347V41.2127H3.58367V38.5249Z" fill="#25C4BF"/>
</svg>
