<svg width="247" height="91" viewBox="0 0 247 91" fill="none" xmlns="http://www.w3.org/2000/svg">
<g opacity="0.79">
<path d="M16.6371 8.31854C16.6371 12.9128 12.9128 16.6371 8.31854 16.6371C3.72433 16.6371 0 12.9128 0 8.31854C0 3.72433 3.72433 0 8.31854 0C12.9128 0 16.6371 3.72433 16.6371 8.31854Z" fill="#C3A8DB"/>
<path d="M36.9714 8.31854C36.9714 12.9128 33.2469 16.6371 28.6527 16.6371C24.0585 16.6371 20.3342 12.9128 20.3342 8.31854C20.3342 3.72433 24.0585 0 28.6527 0C33.2469 0 36.9714 3.72433 36.9714 8.31854Z" fill="#C3A8DB"/>
<path d="M7.39429 5.54639H29.5771V11.0921H7.39429V5.54639Z" fill="#C3A8DB"/>
<path d="M16.6371 26.8045C16.6371 31.3987 12.9128 35.1229 8.31854 35.1229C3.72433 35.1229 0 31.3987 0 26.8045C0 22.2103 3.72433 18.4858 8.31854 18.4858C12.9128 18.4858 16.6371 22.2103 16.6371 26.8045Z" fill="#C3A8DB"/>
<path d="M36.9714 26.8045C36.9714 31.3987 33.2469 35.1229 28.6527 35.1229C24.0585 35.1229 20.3342 31.3987 20.3342 26.8045C20.3342 22.2103 24.0585 18.4858 28.6527 18.4858C33.2469 18.4858 36.9714 22.2103 36.9714 26.8045Z" fill="#C3A8DB"/>
<path d="M7.39429 24.0317H29.5771V29.5775H7.39429V24.0317Z" fill="#C3A8DB"/>
<path d="M16.6371 45.2907C16.6371 49.8848 12.9128 53.6093 8.31854 53.6093C3.72433 53.6093 0 49.8848 0 45.2907C0 40.6965 3.72433 36.9722 8.31854 36.9722C12.9128 36.9722 16.6371 40.6965 16.6371 45.2907Z" fill="#15ED68"/>
<path d="M36.9714 45.2907C36.9714 49.8848 33.2469 53.6093 28.6527 53.6093C24.0585 53.6093 20.3342 49.8848 20.3342 45.2907C20.3342 40.6965 24.0585 36.9722 28.6527 36.9722C33.2469 36.9722 36.9714 40.6965 36.9714 45.2907Z" fill="#15ED68"/>
<path d="M7.39429 42.5176H29.5771V48.0634H7.39429V42.5176Z" fill="#15ED68"/>
<path d="M16.6371 63.7757C16.6371 68.3699 12.9128 72.0942 8.31854 72.0942C3.72433 72.0942 0 68.3699 0 63.7757C0 59.1815 3.72433 55.457 8.31854 55.457C12.9128 55.457 16.6371 59.1815 16.6371 63.7757Z" fill="#25C4BF"/>
<path d="M36.9714 63.7757C36.9714 68.3699 33.2469 72.0942 28.6527 72.0942C24.0585 72.0942 20.3342 68.3699 20.3342 63.7757C20.3342 59.1815 24.0585 55.457 28.6527 55.457C33.2469 55.457 36.9714 59.1815 36.9714 63.7757Z" fill="#25C4BF"/>
<path d="M7.39429 61.0034H29.5771V66.549H7.39429V61.0034Z" fill="#25C4BF"/>
<path d="M16.6371 82.2609C16.6371 86.8551 12.9128 90.5793 8.31854 90.5793C3.72433 90.5793 0 86.8551 0 82.2609C0 77.6667 3.72433 73.9424 8.31854 73.9424C12.9128 73.9424 16.6371 77.6667 16.6371 82.2609Z" fill="#25C4BF"/>
<path d="M36.9714 82.2609C36.9714 86.8551 33.2469 90.5793 28.6527 90.5793C24.0585 90.5793 20.3342 86.8551 20.3342 82.2609C20.3342 77.6667 24.0585 73.9424 28.6527 73.9424C33.2469 73.9424 36.9714 77.6667 36.9714 82.2609Z" fill="#25C4BF"/>
<path d="M7.39429 79.4893H29.5771V85.0351H7.39429V79.4893Z" fill="#25C4BF"/>
</g>
<path d="M238.526 37.0887L246.028 38.3484C245.065 41.0996 243.538 43.1988 241.446 44.646C239.374 46.0751 236.774 46.7898 233.648 46.7898C228.698 46.7898 225.036 45.173 222.661 41.9394C220.785 39.3487 219.847 36.0793 219.847 32.131C219.847 27.4144 221.081 23.7252 223.544 21.0633C226.01 18.3834 229.127 17.0435 232.897 17.0435C237.131 17.0435 240.474 18.4459 242.921 21.2509C245.368 24.0378 246.538 28.3167 246.43 34.0874H227.566C227.619 36.3205 228.226 38.0624 229.387 39.313C230.549 40.5458 231.996 41.1621 233.729 41.1621C234.907 41.1621 235.899 40.8404 236.704 40.1973C237.507 39.5542 238.115 38.518 238.526 37.0887ZM238.955 29.478C238.901 27.2983 238.338 25.6457 237.265 24.5202C236.194 23.3769 234.89 22.8052 233.353 22.8052C231.709 22.8052 230.351 23.4037 229.28 24.6007C228.207 25.7976 227.681 27.4235 227.7 29.478H238.955Z" fill="#04E259"/>
<path d="M214.381 46.1467H206.85V31.6219C206.85 28.549 206.689 26.5658 206.367 25.6726C206.046 24.7614 205.519 24.0558 204.786 23.5556C204.071 23.0552 203.205 22.8052 202.187 22.8052C200.883 22.8052 199.712 23.1625 198.676 23.8771C197.64 24.5918 196.925 25.5387 196.532 26.7176C196.157 27.8968 195.969 30.0765 195.969 33.2565V46.1467H188.439V17.6866H195.434V21.8672C197.917 18.6514 201.043 17.0435 204.813 17.0435C206.474 17.0435 207.993 17.3472 209.369 17.9546C210.743 18.5442 211.781 19.3035 212.477 20.2325C213.193 21.1615 213.684 22.2155 213.952 23.3947C214.237 24.5739 214.381 26.2621 214.381 28.4597V46.1467Z" fill="#04E259"/>
<path d="M173.218 13.8275V6.85986H180.748V13.8275H173.218ZM173.218 46.1465V17.6865H180.748V46.1465H173.218Z" fill="#04E259"/>
<path d="M139.451 17.6866H146.473V21.8672C147.384 20.4379 148.616 19.2767 150.171 18.3834C151.725 17.4901 153.449 17.0435 155.343 17.0435C158.648 17.0435 161.453 18.3387 163.758 20.9292C166.062 23.5197 167.214 27.1287 167.214 31.7559C167.214 36.5081 166.053 40.2064 163.731 42.8505C161.408 45.4767 158.594 46.7898 155.289 46.7898C153.717 46.7898 152.288 46.4772 151.002 45.8518C149.733 45.2267 148.393 44.1546 146.982 42.6359V56.9733H139.451V17.6866ZM146.901 31.4342C146.901 34.6321 147.536 36.9994 148.804 38.5359C150.072 40.0545 151.618 40.8138 153.44 40.8138C155.191 40.8138 156.647 40.117 157.808 38.7235C158.969 37.3122 159.55 35.0074 159.55 31.8095C159.55 28.8259 158.952 26.6106 157.755 25.1633C156.558 23.7163 155.075 22.9927 153.306 22.9927C151.466 22.9927 149.939 23.7075 148.724 25.1365C147.509 26.548 146.901 28.6473 146.901 31.4342Z" fill="#04E259"/>
<path d="M101.103 33.3637L108.821 32.6132C109.285 35.2037 110.223 37.1065 111.634 38.3214C113.064 39.5363 114.984 40.1437 117.396 40.1437C119.951 40.1437 121.871 39.6077 123.158 38.5358C124.462 37.4459 125.114 36.1774 125.114 34.7304C125.114 33.8013 124.837 33.0152 124.283 32.372C123.747 31.7111 122.801 31.1394 121.443 30.657C120.514 30.3353 118.397 29.7638 115.092 28.942C110.839 27.8878 107.856 26.5925 106.141 25.0561C103.729 22.8944 102.523 20.2592 102.523 17.1505C102.523 15.1496 103.086 13.2826 104.211 11.5496C105.355 9.79881 106.989 8.46781 109.115 7.55666C111.259 6.64552 113.841 6.18994 116.86 6.18994C121.791 6.18994 125.498 7.27081 127.982 9.43255C130.483 11.5943 131.796 14.4796 131.921 18.0885L123.989 18.4369C123.649 16.418 122.917 14.9709 121.791 14.0955C120.683 13.2022 119.013 12.7556 116.78 12.7556C114.475 12.7556 112.671 13.229 111.366 14.1759C110.527 14.7833 110.107 15.5962 110.107 16.6146C110.107 17.5436 110.5 18.3386 111.286 18.9996C112.286 19.8393 114.716 20.7147 118.575 21.6258C122.434 22.537 125.284 23.4839 127.124 24.4666C128.982 25.4312 130.429 26.7623 131.465 28.4596C132.519 30.1389 133.047 32.2202 133.047 34.7036C133.047 36.9547 132.421 39.0628 131.171 41.0281C129.92 42.9932 128.151 44.4581 125.865 45.4229C123.578 46.3698 120.728 46.8433 117.316 46.8433C112.349 46.8433 108.535 45.6998 105.873 43.4131C103.211 41.1083 101.621 37.7585 101.103 33.3637Z" fill="#04E259"/>
<path d="M245.832 67.0997V70.4914H242.925V76.9719C242.925 78.2842 242.95 79.0513 242.999 79.2733C243.061 79.4852 243.187 79.662 243.379 79.8032C243.581 79.9445 243.823 80.0153 244.105 80.0153C244.499 80.0153 245.069 79.8789 245.816 79.6063L246.179 82.9072C245.191 83.3312 244.07 83.5431 242.818 83.5431C242.052 83.5431 241.359 83.4169 240.744 83.1645C240.129 82.9021 239.673 82.569 239.382 82.1653C239.1 81.7513 238.902 81.1963 238.79 80.4997C238.699 80.0052 238.654 79.0059 238.654 77.5017V70.4914H236.702V67.0997H238.654V63.9049L242.925 61.4219V67.0997H245.832Z" fill="#0E363E"/>
<path d="M224.376 72.0056L220.515 71.3091C220.949 69.7545 221.696 68.6038 222.756 67.8569C223.817 67.1098 225.391 66.7363 227.481 66.7363C229.377 66.7363 230.791 66.9635 231.719 67.4178C232.65 67.8619 233.3 68.4322 233.673 69.1287C234.057 69.8152 234.249 71.0819 234.249 72.9292L234.203 77.8956C234.203 79.3088 234.269 80.3534 234.399 81.0298C234.542 81.696 234.8 82.4126 235.173 83.1797H230.964C230.853 82.8971 230.716 82.4782 230.553 81.923C230.483 81.6706 230.434 81.5041 230.403 81.4234C229.676 82.1299 228.899 82.66 228.071 83.0132C227.244 83.3665 226.361 83.5431 225.422 83.5431C223.765 83.5431 222.459 83.0939 221.499 82.1955C220.55 81.2972 220.076 80.1617 220.076 78.7888C220.076 77.8803 220.292 77.0727 220.728 76.3663C221.161 75.6495 221.768 75.1045 222.544 74.7311C223.332 74.3475 224.462 74.0143 225.936 73.7316C227.925 73.3581 229.303 73.0099 230.071 72.6869V72.2629C230.071 71.4452 229.868 70.8648 229.464 70.5217C229.059 70.1685 228.298 69.9918 227.178 69.9918C226.421 69.9918 225.83 70.1433 225.405 70.446C224.982 70.7388 224.64 71.2585 224.376 72.0056ZM230.071 75.4578C229.524 75.6395 228.661 75.8564 227.481 76.1088C226.299 76.3611 225.527 76.6085 225.164 76.8507C224.609 77.2444 224.33 77.7441 224.33 78.3497C224.33 78.9452 224.553 79.4602 224.997 79.8941C225.44 80.3282 226.006 80.5453 226.693 80.5453C227.46 80.5453 228.193 80.293 228.888 79.7881C229.404 79.4045 229.742 78.9353 229.903 78.3801C230.015 78.0167 230.071 77.3253 230.071 76.3056V75.4578Z" fill="#0E363E"/>
<path d="M213.248 78.0621L217.486 78.7737C216.942 80.3282 216.079 81.5142 214.899 82.3319C213.727 83.1395 212.258 83.5431 210.492 83.5431C207.696 83.5431 205.626 82.6297 204.284 80.8026C203.224 79.3389 202.694 77.4918 202.694 75.2609C202.694 72.5962 203.391 70.5116 204.784 69.0076C206.177 67.4936 207.937 66.7363 210.069 66.7363C212.46 66.7363 214.348 67.5288 215.73 69.1137C217.113 70.6882 217.775 73.1058 217.715 76.3663H207.054C207.085 77.628 207.428 78.6122 208.084 79.3189C208.74 80.0152 209.559 80.3635 210.537 80.3635C211.203 80.3635 211.765 80.1817 212.219 79.8184C212.673 79.455 213.015 78.8697 213.248 78.0621ZM213.49 73.7619C213.459 72.5305 213.141 71.5967 212.536 70.9608C211.93 70.3147 211.193 69.9918 210.324 69.9918C209.396 69.9918 208.63 70.33 208.024 71.0062C207.417 71.6825 207.12 72.6011 207.13 73.7619H213.49Z" fill="#0E363E"/>
<path d="M181.572 60.9824H190.445C192.201 60.9824 193.508 61.0581 194.367 61.2094C195.235 61.3507 196.007 61.6536 196.683 62.1179C197.37 62.5823 197.94 63.203 198.394 63.9802C198.848 64.7476 199.075 65.6104 199.075 66.5695C199.075 67.6092 198.793 68.5631 198.227 69.4311C197.672 70.2993 196.915 70.9503 195.956 71.3844C197.309 71.7781 198.349 72.4493 199.075 73.3982C199.802 74.347 200.166 75.4624 200.166 76.7443C200.166 77.7537 199.928 78.7379 199.454 79.6969C198.99 80.6459 198.349 81.4078 197.531 81.9833C196.724 82.5484 195.724 82.8967 194.533 83.028C193.786 83.1088 191.984 83.1592 189.128 83.1794H181.572V60.9824ZM186.054 64.6768V69.8097H188.991C190.738 69.8097 191.823 69.7845 192.247 69.734C193.014 69.6432 193.615 69.3808 194.049 68.9466C194.493 68.5024 194.715 67.922 194.715 67.2054C194.715 66.5189 194.523 65.9639 194.139 65.5399C193.766 65.1058 193.206 64.8433 192.459 64.7525C192.015 64.702 190.738 64.6768 188.628 64.6768H186.054ZM186.054 73.5041V79.4394H190.203C191.818 79.4394 192.842 79.394 193.276 79.3033C193.943 79.1821 194.483 78.8894 194.896 78.4251C195.32 77.9505 195.532 77.3198 195.532 76.5324C195.532 75.8662 195.371 75.3008 195.048 74.8366C194.725 74.3723 194.255 74.0342 193.64 73.822C193.034 73.6101 191.712 73.5041 189.673 73.5041H186.054Z" fill="#0E363E"/>
</svg>
