<svg width="120" height="44" viewBox="0 0 120 44" fill="none" xmlns="http://www.w3.org/2000/svg">
<g opacity="0.79">
<path d="M8.06326 4.03163C8.06326 6.25824 6.25824 8.06326 4.03163 8.06326C1.80502 8.06326 0 6.25824 0 4.03163C0 1.80502 1.80502 0 4.03163 0C6.25824 0 8.06326 1.80502 8.06326 4.03163Z" fill="#C3A8DB"/>
<path d="M17.9188 4.03163C17.9188 6.25824 16.1137 8.06326 13.8871 8.06326C11.6605 8.06326 9.85547 6.25824 9.85547 4.03163C9.85547 1.80502 11.6605 0 13.8871 0C16.1137 0 17.9188 1.80502 17.9188 4.03163Z" fill="#C3A8DB"/>
<path d="M3.58398 2.68799H14.335V5.37574H3.58398V2.68799Z" fill="#C3A8DB"/>
<path d="M8.06326 12.9911C8.06326 15.2177 6.25824 17.0227 4.03163 17.0227C1.80502 17.0227 0 15.2177 0 12.9911C0 10.7645 1.80502 8.95947 4.03163 8.95947C6.25824 8.95947 8.06326 10.7645 8.06326 12.9911Z" fill="#C3A8DB"/>
<path d="M17.9188 12.9911C17.9188 15.2177 16.1137 17.0227 13.8871 17.0227C11.6605 17.0227 9.85547 15.2177 9.85547 12.9911C9.85547 10.7645 11.6605 8.95947 13.8871 8.95947C16.1137 8.95947 17.9188 10.7645 17.9188 12.9911Z" fill="#C3A8DB"/>
<path d="M3.58398 11.647H14.335V14.3348H3.58398V11.647Z" fill="#C3A8DB"/>
<path d="M8.06326 21.9501C8.06326 24.1767 6.25824 25.9818 4.03163 25.9818C1.80502 25.9818 0 24.1767 0 21.9501C0 19.7235 1.80502 17.9185 4.03163 17.9185C6.25824 17.9185 8.06326 19.7235 8.06326 21.9501Z" fill="#15ED68"/>
<path d="M17.9188 21.9501C17.9188 24.1767 16.1137 25.9818 13.8871 25.9818C11.6605 25.9818 9.85547 24.1767 9.85547 21.9501C9.85547 19.7235 11.6605 17.9185 13.8871 17.9185C16.1137 17.9185 17.9188 19.7235 17.9188 21.9501Z" fill="#15ED68"/>
<path d="M3.58398 20.6064H14.335V23.2942H3.58398V20.6064Z" fill="#15ED68"/>
<path d="M8.06326 30.9091C8.06326 33.1357 6.25824 34.9407 4.03163 34.9407C1.80502 34.9407 0 33.1357 0 30.9091C0 28.6825 1.80502 26.8774 4.03163 26.8774C6.25824 26.8774 8.06326 28.6825 8.06326 30.9091Z" fill="#25C4BF"/>
<path d="M17.9188 30.9091C17.9188 33.1357 16.1137 34.9407 13.8871 34.9407C11.6605 34.9407 9.85547 33.1357 9.85547 30.9091C9.85547 28.6825 11.6605 26.8774 13.8871 26.8774C16.1137 26.8774 17.9188 28.6825 17.9188 30.9091Z" fill="#25C4BF"/>
<path d="M3.58398 29.5659H14.335V32.2536H3.58398V29.5659Z" fill="#25C4BF"/>
<path d="M8.06326 39.8685C8.06326 42.0951 6.25824 43.9001 4.03163 43.9001C1.80502 43.9001 0 42.0951 0 39.8685C0 37.6419 1.80502 35.8369 4.03163 35.8369C6.25824 35.8369 8.06326 37.6419 8.06326 39.8685Z" fill="#25C4BF"/>
<path d="M17.9188 39.8685C17.9188 42.0951 16.1137 43.9001 13.8871 43.9001C11.6605 43.9001 9.85547 42.0951 9.85547 39.8685C9.85547 37.6419 11.6605 35.8369 13.8871 35.8369C16.1137 35.8369 17.9188 37.6419 17.9188 39.8685Z" fill="#25C4BF"/>
<path d="M3.58398 38.5249H14.335V41.2127H3.58398V38.5249Z" fill="#25C4BF"/>
</g>
<path d="M115.603 17.9753L119.239 18.5858C118.772 19.9192 118.032 20.9366 117.018 21.638C116.014 22.3306 114.754 22.677 113.239 22.677C110.84 22.677 109.065 21.8934 107.914 20.3262C107.005 19.0706 106.55 17.4861 106.55 15.5725C106.55 13.2866 107.148 11.4986 108.342 10.2085C109.537 8.90966 111.048 8.26025 112.875 8.26025C114.927 8.26025 116.547 8.93996 117.733 10.2994C118.919 11.6501 119.486 13.7239 119.434 16.5207H110.291C110.317 17.603 110.611 18.4472 111.174 19.0533C111.737 19.6508 112.438 19.9495 113.278 19.9495C113.849 19.9495 114.33 19.7936 114.72 19.4819C115.109 19.1702 115.404 18.668 115.603 17.9753ZM115.811 14.2867C115.785 13.2303 115.512 12.4294 114.992 11.8839C114.473 11.3298 113.841 11.0527 113.096 11.0527C112.299 11.0527 111.641 11.3428 111.122 11.9229C110.602 12.503 110.347 13.291 110.356 14.2867H115.811Z" fill="#04E259"/>
<path d="M103.901 22.3653H100.251V15.3258C100.251 13.8365 100.173 12.8753 100.017 12.4424C99.8612 12.0008 99.6058 11.6588 99.2508 11.4164C98.9044 11.1739 98.4845 11.0527 97.9909 11.0527C97.3589 11.0527 96.7917 11.2259 96.2895 11.5722C95.7873 11.9186 95.441 12.3775 95.2505 12.9489C95.0686 13.5204 94.9777 14.5768 94.9777 16.118V22.3653H91.3281V8.57197H94.718V10.5981C95.9215 9.03954 97.4368 8.26025 99.2638 8.26025C100.069 8.26025 100.805 8.40745 101.472 8.70185C102.138 8.98759 102.641 9.35558 102.978 9.80583C103.325 10.2561 103.563 10.7669 103.693 11.3384C103.831 11.9099 103.901 12.7281 103.901 13.7932V22.3653Z" fill="#04E259"/>
<path d="M83.9512 6.7016V3.32471H87.6008V6.7016H83.9512ZM83.9512 22.3652V8.57188H87.6008V22.3652H83.9512Z" fill="#04E259"/>
<path d="M67.5859 8.57197H70.9888V10.5981C71.4304 9.90541 72.0278 9.34259 72.7811 8.90966C73.5344 8.47672 74.37 8.26025 75.2878 8.26025C76.8897 8.26025 78.2491 8.88801 79.3661 10.1435C80.483 11.399 81.0415 13.1481 81.0415 15.3907C81.0415 17.6939 80.4787 19.4863 79.3531 20.7678C78.2275 22.0406 76.8637 22.677 75.2618 22.677C74.4999 22.677 73.8072 22.5255 73.1838 22.2224C72.569 21.9194 71.9196 21.3998 71.2356 20.6638V27.6125H67.5859V8.57197ZM71.1966 15.2348C71.1966 16.7847 71.504 17.932 72.1187 18.6767C72.7335 19.4127 73.4825 19.7807 74.3657 19.7807C75.2142 19.7807 75.9199 19.443 76.4827 18.7676C77.0455 18.0836 77.327 16.9666 77.327 15.4167C77.327 13.9707 77.0369 12.897 76.4568 12.1956C75.8766 11.4943 75.1579 11.1436 74.3007 11.1436C73.4089 11.1436 72.6686 11.49 72.0798 12.1826C71.491 12.8667 71.1966 13.8841 71.1966 15.2348Z" fill="#04E259"/>
<path d="M49 16.1699L52.7406 15.8062C52.9657 17.0617 53.4203 17.9839 54.1043 18.5727C54.797 19.1615 55.7278 19.4559 56.8967 19.4559C58.1349 19.4559 59.0657 19.1961 59.6892 18.6766C60.3213 18.1484 60.6373 17.5336 60.6373 16.8323C60.6373 16.382 60.5031 16.001 60.2347 15.6893C59.9749 15.369 59.516 15.0919 58.8579 14.8581C58.4077 14.7022 57.3816 14.4252 55.7798 14.0269C53.719 13.516 52.273 12.8882 51.4418 12.1436C50.2728 11.0959 49.6884 9.81873 49.6884 8.31211C49.6884 7.34234 49.9611 6.43751 50.5066 5.59761C51.0608 4.74906 51.853 4.10398 52.8834 3.66239C53.9225 3.2208 55.1737 3 56.637 3C59.0268 3 60.8235 3.52385 62.027 4.57155C63.2392 5.61926 63.8757 7.01764 63.9363 8.7667L60.0918 8.93554C59.9273 7.95711 59.5723 7.25575 59.0268 6.83148C58.4899 6.39854 57.6804 6.18207 56.598 6.18207C55.481 6.18207 54.6065 6.41153 53.9744 6.87044C53.5675 7.16484 53.364 7.55881 53.364 8.05235C53.364 8.50261 53.5545 8.88792 53.9355 9.20829C54.4203 9.61525 55.5979 10.0395 57.4682 10.4811C59.3385 10.9227 60.7196 11.3816 61.6114 11.8579C62.5119 12.3254 63.2133 12.9705 63.7155 13.7931C64.2263 14.607 64.4818 15.6157 64.4818 16.8193C64.4818 17.9103 64.1787 18.932 63.5726 19.8845C62.9665 20.8369 62.1093 21.5469 61.001 22.0145C59.8926 22.4734 58.5116 22.7029 56.8578 22.7029C54.4507 22.7029 52.602 22.1487 51.3119 21.0404C50.0217 19.9234 49.2511 18.2999 49 16.1699Z" fill="#04E259"/>
<path d="M119.144 32.5204V34.1642H117.735V37.305C117.735 37.941 117.747 38.3128 117.771 38.4204C117.801 38.5231 117.862 38.6088 117.955 38.6772C118.053 38.7457 118.17 38.78 118.307 38.78C118.498 38.78 118.774 38.7139 119.136 38.5818L119.312 40.1816C118.833 40.3871 118.29 40.4898 117.683 40.4898C117.312 40.4898 116.976 40.4286 116.678 40.3063C116.38 40.1791 116.159 40.0177 116.018 39.822C115.881 39.6214 115.785 39.3524 115.731 39.0148C115.687 38.7751 115.665 38.2908 115.665 37.5618V34.1642H114.719V32.5204H115.665V30.972L117.735 29.7686V32.5204H119.144Z" fill="white"/>
<path d="M108.745 34.898L106.874 34.5604C107.084 33.807 107.446 33.2493 107.96 32.8873C108.474 32.5252 109.237 32.3442 110.25 32.3442C111.169 32.3442 111.854 32.4543 112.304 32.6745C112.755 32.8897 113.07 33.1661 113.251 33.5037C113.437 33.8364 113.53 34.4503 113.53 35.3456L113.508 37.7526C113.508 38.4375 113.54 38.9438 113.603 39.2716C113.672 39.5945 113.797 39.9418 113.978 40.3136H111.938C111.884 40.1766 111.818 39.9736 111.739 39.7045C111.705 39.5822 111.681 39.5015 111.666 39.4624C111.314 39.8048 110.937 40.0617 110.536 40.2329C110.135 40.4041 109.707 40.4897 109.252 40.4897C108.449 40.4897 107.816 40.272 107.351 39.8366C106.891 39.4012 106.661 38.8509 106.661 38.1855C106.661 37.7452 106.766 37.3538 106.977 37.0114C107.187 36.664 107.481 36.3999 107.857 36.2189C108.239 36.033 108.787 35.8715 109.501 35.7345C110.465 35.5535 111.133 35.3847 111.505 35.2282V35.0227C111.505 34.6264 111.407 34.3451 111.211 34.1788C111.015 34.0076 110.646 33.922 110.103 33.922C109.736 33.922 109.45 33.9954 109.244 34.1421C109.039 34.284 108.873 34.5359 108.745 34.898ZM111.505 36.5711C111.24 36.6592 110.822 36.7643 110.25 36.8866C109.677 37.0089 109.303 37.1288 109.127 37.2462C108.858 37.437 108.723 37.6792 108.723 37.9727C108.723 38.2613 108.831 38.5109 109.046 38.7212C109.261 38.9316 109.535 39.0368 109.868 39.0368C110.24 39.0368 110.595 38.9145 110.932 38.6698C111.182 38.4839 111.346 38.2565 111.424 37.9874C111.478 37.8113 111.505 37.4762 111.505 36.982V36.5711Z" fill="white"/>
<path d="M103.352 37.8333L105.406 38.1782C105.142 38.9316 104.724 39.5064 104.152 39.9027C103.584 40.2941 102.872 40.4897 102.016 40.4897C100.661 40.4897 99.6585 40.047 99.0078 39.1615C98.4942 38.4521 98.2373 37.5569 98.2373 36.4757C98.2373 35.1842 98.5749 34.1739 99.25 33.445C99.9251 32.7112 100.778 32.3442 101.811 32.3442C102.97 32.3442 103.885 32.7283 104.555 33.4964C105.225 34.2595 105.546 35.4312 105.517 37.0114H100.35C100.365 37.6229 100.531 38.0999 100.849 38.4424C101.167 38.7799 101.564 38.9487 102.038 38.9487C102.361 38.9487 102.633 38.8606 102.853 38.6845C103.073 38.5084 103.239 38.2247 103.352 37.8333ZM103.469 35.7492C103.454 35.1524 103.3 34.6998 103.007 34.3916C102.713 34.0785 102.356 33.922 101.935 33.922C101.485 33.922 101.114 34.0859 100.82 34.4136C100.526 34.7414 100.382 35.1866 100.387 35.7492H103.469Z" fill="white"/>
<path d="M88 29.5557H92.3002C93.1515 29.5557 93.785 29.5924 94.2009 29.6657C94.6216 29.7342 94.9958 29.881 95.3236 30.106C95.6563 30.3311 95.9327 30.6319 96.1528 31.0086C96.373 31.3805 96.4831 31.7987 96.4831 32.2635C96.4831 32.7674 96.3461 33.2297 96.0721 33.6504C95.8031 34.0712 95.4361 34.3867 94.9714 34.5971C95.6269 34.7879 96.1308 35.1132 96.4831 35.5731C96.8353 36.0329 97.0114 36.5735 97.0114 37.1948C97.0114 37.684 96.8965 38.161 96.6665 38.6258C96.4415 39.0857 96.1308 39.455 95.7346 39.7339C95.3432 40.0078 94.8589 40.1766 94.2816 40.2402C93.9196 40.2794 93.0463 40.3038 91.6618 40.3136H88V29.5557ZM90.1721 31.3462V33.8339H91.5958C92.4421 33.8339 92.968 33.8217 93.1735 33.7972C93.5453 33.7532 93.8364 33.626 94.0468 33.4156C94.262 33.2003 94.3696 32.919 94.3696 32.5717C94.3696 32.239 94.2767 31.97 94.0908 31.7645C93.9098 31.5541 93.6383 31.4269 93.2762 31.3829C93.061 31.3584 92.4421 31.3462 91.4196 31.3462H90.1721ZM90.1721 35.6244V38.501H92.1828C92.9656 38.501 93.4621 38.479 93.6725 38.435C93.9954 38.3763 94.2571 38.2344 94.4577 38.0094C94.6632 37.7794 94.7659 37.4737 94.7659 37.0921C94.7659 36.7692 94.6876 36.4952 94.5311 36.2702C94.3745 36.0452 94.147 35.8813 93.8486 35.7785C93.5551 35.6758 92.9142 35.6244 91.926 35.6244H90.1721Z" fill="white"/>
</svg>
