<svg width="125" height="139" viewBox="0 0 125 139" fill="none" xmlns="http://www.w3.org/2000/svg">
<path d="M80.1814 78.647L83.8095 73.2067L80.6094 68.2076H82.086L83.7838 70.8912C84.1397 71.4432 84.3866 71.8756 84.5341 72.1686C84.7409 71.7916 84.9879 71.3968 85.2764 70.9841L87.165 68.2076H88.5182L85.2267 73.1334L88.7731 78.656H87.2388L84.8804 74.9344C84.749 74.7235 84.6095 74.4841 84.4684 74.2358C84.2632 74.6128 84.1141 74.879 84.0243 75.0165L81.674 78.656L80.1814 78.647ZM71.9777 75.2935L73.148 75.1827C73.2057 75.7062 73.3292 76.1296 73.536 76.4691C73.7412 76.8086 74.0554 77.0766 74.4755 77.2785C74.9036 77.4804 75.3829 77.5911 75.9104 77.5911C76.3801 77.5911 76.8002 77.5161 77.1641 77.3606C77.5264 77.2052 77.799 76.9926 77.9721 76.7174C78.1453 76.4423 78.2351 76.1475 78.2351 75.8259C78.2351 75.4954 78.1533 75.2095 77.9801 74.9719C77.807 74.7235 77.5264 74.5216 77.1384 74.3555C76.8835 74.2447 76.3304 74.0803 75.4727 73.8409C74.615 73.6122 74.0057 73.3907 73.6675 73.1888C73.2218 72.9315 72.8835 72.601 72.6702 72.2151C72.4554 71.8292 72.34 71.3968 72.34 70.9108C72.34 70.3855 72.4715 69.8906 72.744 69.4297C73.0166 68.9705 73.4029 68.6221 73.9224 68.3827C74.4418 68.1433 75.011 68.0254 75.6458 68.0254C76.3384 68.0254 76.9573 68.1433 77.4848 68.4006C78.0122 68.6489 78.4242 69.017 78.7048 69.5047C78.9854 69.9907 79.1425 70.5338 79.1665 71.1484L77.9801 71.2503C77.9144 70.5892 77.6996 70.0925 77.3276 69.7513C76.9573 69.4118 76.4138 69.2475 75.6955 69.2475C74.9452 69.2475 74.4017 69.4029 74.0554 69.7066C73.7091 70.0086 73.544 70.3855 73.544 70.809C73.544 71.186 73.6675 71.4986 73.9063 71.7363C74.1452 71.9757 74.7721 72.224 75.7773 72.4813C76.7841 72.7386 77.4767 72.9583 77.8567 73.1513C78.4002 73.4372 78.8042 73.7855 79.0687 74.2179C79.3237 74.6503 79.4551 75.1452 79.4551 75.7062C79.4551 76.2672 79.3156 76.7907 79.027 77.2785C78.7385 77.7644 78.3345 78.1503 77.799 78.4273C77.2619 78.7024 76.6607 78.8311 75.9921 78.8311C75.1424 78.8311 74.4338 78.6935 73.8566 78.4165C73.2795 78.1414 72.8338 77.7287 72.5051 77.1766C72.1668 76.6156 71.9937 75.9921 71.9777 75.2935ZM65.0678 78.647V68.1987H66.3119V77.4071H70.9291V78.6381L65.0678 78.647ZM55.4355 78.647L59.0637 73.2067L55.8652 68.2076H57.3418L59.0396 70.8912C59.3939 71.4432 59.6408 71.8756 59.7899 72.1686C59.9967 71.7916 60.2436 71.3968 60.5322 70.9841L62.4208 68.2076H63.7723L60.4825 73.1334L64.0288 78.656H62.4946L60.1362 74.9254C60.0047 74.7146 59.8637 74.4752 59.7242 74.2268C59.5174 74.6038 59.3699 74.87 59.2785 75.0076L56.9282 78.647H55.4355Z" fill="#8BC34A"/>
<path d="M54.5293 89.4815C54.1082 89.4815 53.771 89.8573 53.771 90.3266C53.771 90.7959 54.1082 91.1716 54.5293 91.1716H89.6723C90.0917 91.1716 90.4306 90.7959 90.4306 90.3266C90.4306 89.8573 90.0917 89.4815 89.6723 89.4815H54.5293Z" fill="#8BC34A"/>
<path d="M54.5293 95.4258C54.1082 95.4258 53.771 95.8034 53.771 96.2708C53.771 96.7401 54.1082 97.1177 54.5293 97.1177H89.6723C90.0917 97.1177 90.4306 96.7401 90.4306 96.2708C90.4306 95.8034 90.0917 95.4258 89.6723 95.4258H54.5293Z" fill="#8BC34A"/>
<path d="M54.5293 101.372C54.1082 101.372 53.771 101.747 53.771 102.217C53.771 102.686 54.1082 103.062 54.5293 103.062H89.6723C90.0917 103.062 90.4306 102.686 90.4306 102.217C90.4306 101.747 90.0917 101.372 89.6723 101.372H54.5293Z" fill="#8BC34A"/>
<path d="M43.279 29H90.6356C90.9191 29 91.1766 29.1464 91.3323 29.3668L101.602 41.4353C101.748 41.6095 101.795 41.7651 101.804 41.9856V109.155C101.804 109.624 101.428 110 100.959 110H43.279C42.8102 110 42.4341 109.624 42.4341 109.155V54.3023H44.122V108.31H100.116V42.2894L90.2502 30.6971H44.122V39.7642H42.4341V29.8541C42.4341 29.3761 42.8102 29 43.279 29Z" fill="#8BC34A"/>
<path d="M100.409 43.4985C100.898 43.4985 101.29 43.1222 101.29 42.6532C101.29 42.1842 100.898 41.8079 100.409 41.8079H90.7414V30.7078C90.7414 30.2388 90.3494 29.8625 89.8609 29.8625C89.3744 29.8625 88.9805 30.2388 88.9805 30.7078V42.644C88.9805 43.113 89.3744 43.4893 89.8609 43.4893L100.409 43.4985Z" fill="#8BC34A"/>
<path d="M48.8987 50.1987L51.0841 46.4873L49.1049 43.087H50.6131L51.8913 45.3757L53.1457 43.087H54.638L52.6509 46.5421L54.8347 50.1987H53.2773L51.858 47.7368L50.4402 50.1987H48.8987ZM43.2673 47.8835L44.5201 47.7456C44.5947 48.214 44.7517 48.5639 44.9816 48.7848C45.2132 49.004 45.5256 49.1153 45.9141 49.1153C46.3265 49.1153 46.6389 49.0146 46.853 48.8202C47.0686 48.6275 47.167 48.3978 47.167 48.1309C47.167 47.9666 47.1257 47.8199 47.0353 47.6997C46.945 47.5795 46.7959 47.4788 46.5738 47.3869C46.4248 47.3321 46.0791 47.2225 45.543 47.0758C44.85 46.8814 44.3631 46.6517 44.092 46.3671C43.6955 45.973 43.5052 45.4941 43.5052 44.9338C43.5052 44.5662 43.5972 44.2358 43.7859 43.9141C43.9683 43.6013 44.2394 43.3627 44.5868 43.1966C44.9325 43.0322 45.3527 42.9492 45.8396 42.9492C46.6389 42.9492 47.2415 43.1418 47.6538 43.5377C48.0566 43.9318 48.2723 44.4567 48.2882 45.1088L47.002 45.1724C46.9449 44.8048 46.8292 44.538 46.6468 44.3824C46.466 44.2181 46.1932 44.1439 45.8317 44.1439C45.4606 44.1439 45.164 44.2269 44.9483 44.4019C44.8088 44.5115 44.7422 44.6581 44.7422 44.8419C44.7422 45.0081 44.8088 45.1548 44.9325 45.2732C45.0974 45.4305 45.4923 45.586 46.1203 45.7521C46.7467 45.9165 47.2082 46.0914 47.5127 46.2664C47.8108 46.4414 48.0487 46.6799 48.2216 46.9928C48.396 47.295 48.4785 47.6714 48.4785 48.1221C48.4785 48.5268 48.3786 48.9121 48.1724 49.2708C47.9663 49.6296 47.6776 49.8965 47.3065 50.0608C46.9354 50.2358 46.4739 50.3188 45.9141 50.3188C45.1053 50.3188 44.4868 50.1068 44.0507 49.6932C43.613 49.2903 43.3577 48.6823 43.2673 47.8835ZM38.1798 50.1987V43.1418H39.466V49.004H42.6726V50.2075L38.1798 50.1987ZM31.5493 50.1987L33.7346 46.4873L31.7555 43.087H33.2652L34.5434 45.3757L35.7963 43.087H37.2886L35.3015 46.5421L37.4868 50.1987H35.9279L34.5101 47.7368L33.0924 50.1987H31.5493Z" fill="#8BC34A"/>
<path d="M61.1105 40.2642H30.2396C28.665 40.2642 27.2386 40.9819 26.1986 42.1391C23.9559 44.6384 23.9559 48.6447 26.1986 51.1439C27.2386 52.303 28.665 53.0188 30.2396 53.0188H61.1105C61.5307 53.0188 61.8688 52.6331 61.8688 52.1738V41.12C61.8688 40.65 61.5226 40.2642 61.1105 40.2642ZM30.2396 38.5741H61.1105C62.3646 38.5741 63.387 39.7134 63.387 41.1111V52.1648C63.387 53.5607 62.3646 54.7 61.1105 54.7H30.2396C28.2529 54.7 26.4385 53.7903 25.1263 52.3299C22.2912 49.1686 22.2912 44.0965 25.1263 40.9352C26.4385 39.4837 28.2432 38.5741 30.2396 38.5741Z" fill="#8BC34A"/>
<path d="M106.731 4.32763H17.4632C13.7293 4.32763 10.3325 6.02742 7.87457 8.77509C5.40917 11.5228 3.88371 15.3082 3.88371 19.4612V118.942C3.88371 123.103 5.40917 126.889 7.87457 129.628C10.3398 132.375 13.7366 134.075 17.4632 134.075H106.731C110.465 134.075 113.862 132.375 116.32 129.628C118.786 126.881 120.311 123.095 120.311 118.942V19.4612C120.311 15.3001 118.786 11.5146 116.32 8.77509C113.854 6.02742 110.458 4.32763 106.731 4.32763ZM17.4632 -3.4096e-07H106.731C111.536 -3.4096e-07 115.899 2.18718 119.066 5.71469C122.232 9.24422 124.194 14.106 124.194 19.4612V118.942C124.194 124.297 122.232 129.159 119.066 132.688C115.899 136.216 111.536 138.403 106.731 138.403H17.4632C12.6578 138.403 8.29517 136.216 5.12872 132.688C1.96246 129.159 0 124.297 0 118.942V19.4612C0 14.106 1.96246 9.24422 5.12872 5.71469C8.29517 2.18718 12.6578 -3.4096e-07 17.4632 -3.4096e-07Z" fill="#8BC34A"/>
</svg>
